<?xml version="1.0" standalone="no"?>
<!DOCTYPE svg PUBLIC "-//W3C//DTD SVG 20010904//EN"
 "http://www.w3.org/TR/2001/REC-SVG-20010904/DTD/svg10.dtd">
<svg version="1.0" xmlns="http://www.w3.org/2000/svg"
 width="500.000000pt" height="500.000000pt" viewBox="0 0 500.000000 500.000000"
 preserveAspectRatio="xMidYMid meet">
<metadata>
Created by potrace 1.11, written by Peter Selinger 2001-2013
</metadata>
<g transform="translate(0.000000,500.000000) scale(0.100000,-0.100000)"
fill="#000000" stroke="none">
<path d="M0 2500 l0 -2500 2500 0 2500 0 0 2500 0 2500 -2500 0 -2500 0 0
-2500z m2866 1610 c92 -23 270 -108 305 -146 15 -16 19 -24 9 -22 -11 2 -15
-6 -14 -29 0 -18 -2 -30 -6 -28 -9 5 -7 46 2 61 4 6 1 11 -5 11 -9 0 -13 -22
-12 -78 1 -43 -2 -76 -6 -73 -4 2 -5 17 -4 34 1 17 0 32 -4 34 -4 3 -7 -31 -6
-74 1 -43 -2 -77 -6 -74 -4 2 -5 17 -4 34 1 17 0 32 -4 34 -4 3 -7 -18 -6 -46
0 -60 8 -56 -140 -62 -55 -2 -100 -5 -100 -5 0 -1 -70 -4 -155 -6 -176 -5
-394 -14 -490 -20 -36 -2 -123 -7 -195 -10 -119 -5 -278 -16 -445 -31 -112
-10 -368 -43 -413 -54 -23 -6 -162 -13 -309 -17 l-268 -6 0 -639 0 -638 220 0
c191 0 238 -3 353 -24 139 -26 323 -49 522 -66 66 -6 134 -12 150 -14 17 -3
82 -8 145 -11 63 -4 147 -10 185 -13 l70 -7 -60 -22 c-64 -24 -159 -89 -212
-144 -46 -49 -99 -141 -125 -218 -30 -87 -32 -258 -4 -341 33 -98 79 -173 151
-245 104 -104 230 -160 376 -167 39 -1 45 -4 45 -24 0 -13 -5 -22 -10 -21 -6
1 -10 -16 -10 -40 0 -24 -4 -41 -10 -40 -6 1 -10 -16 -10 -40 0 -24 -4 -41
-10 -40 -6 1 -11 -12 -10 -30 0 -18 -2 -30 -6 -28 -10 6 -6 47 5 65 5 8 10 26
10 40 0 14 5 32 10 40 5 8 10 27 10 41 0 14 6 33 13 42 9 10 10 17 2 22 -6 4
-9 1 -8 -7 2 -7 -2 -12 -8 -11 -6 1 -10 -16 -10 -40 0 -24 -4 -41 -10 -40 -6
1 -10 -16 -10 -40 0 -24 -4 -41 -10 -40 -6 1 -10 -28 -9 -76 1 -66 -2 -78 -15
-76 -8 2 -15 4 -15 5 0 0 -26 3 -58 5 -68 5 -194 36 -281 69 -292 110 -545
345 -675 628 -47 100 -73 186 -101 322 -48 235 -132 326 -377 406 -364 118
-615 379 -710 738 -36 135 -38 354 -6 484 68 267 214 484 423 625 304 205 635
245 986 117 123 -44 237 -64 364 -65 133 0 222 14 330 52 47 17 121 44 166 60
44 16 111 33 150 38 97 14 267 4 360 -19z m227 -1260 c80 -232 86 -245 111
-248 14 -2 26 -8 26 -13 0 -5 -45 -9 -100 -9 -60 0 -100 4 -100 10 0 6 12 10
26 10 17 0 24 5 22 13 -3 6 -13 36 -22 65 l-18 52 -78 0 -78 0 -19 -62 -19
-63 23 -3 c47 -7 21 -22 -38 -22 -37 0 -58 4 -54 10 3 6 15 10 25 10 15 0 32
42 101 248 45 136 84 251 86 255 11 18 25 -16 106 -253z m-630 239 c44 -23 67
-52 67 -85 0 -38 -19 -57 -57 -52 -20 2 -30 11 -38 32 -8 25 -6 31 17 51 l27
23 -30 12 c-41 17 -97 6 -130 -26 -44 -42 -64 -106 -64 -204 1 -106 17 -164
60 -207 27 -27 41 -33 77 -33 51 0 99 26 124 69 19 32 34 40 34 19 0 -23 -45
-77 -81 -97 -47 -27 -138 -28 -194 -2 -84 39 -118 105 -119 231 0 64 5 96 21
130 28 63 70 110 118 131 45 21 135 25 168 8z m-1414 -167 c36 -92 69 -176 74
-186 8 -16 23 17 77 165 l67 184 77 3 c48 2 76 -1 76 -8 0 -5 -13 -10 -30 -10
l-30 0 0 -235 0 -235 30 0 c17 0 30 -4 30 -10 0 -6 -42 -10 -106 -10 -67 0
-103 4 -99 10 3 6 17 10 31 10 l24 0 -1 208 c0 114 -3 203 -5 197 -3 -5 -40
-104 -82 -219 -42 -114 -81 -208 -87 -209 -5 0 -51 105 -102 234 l-92 234 -1
-146 c0 -80 3 -180 6 -222 7 -72 8 -77 30 -77 13 0 24 -4 24 -10 0 -6 -28 -10
-65 -10 -37 0 -65 4 -65 10 0 6 11 10 25 10 l25 0 0 235 0 235 -25 0 c-14 0
-25 5 -25 10 0 6 32 10 78 10 l77 -1 64 -167z m831 158 c0 -5 -11 -10 -25 -10
l-25 0 0 -235 0 -235 25 0 c14 0 25 -4 25 -10 0 -6 -40 -10 -100 -10 -60 0
-100 4 -100 10 0 6 11 10 25 10 l25 0 0 235 0 235 -25 0 c-14 0 -25 5 -25 10
0 6 40 10 100 10 60 0 100 -4 100 -10z m1780 0 c0 -5 -11 -10 -25 -10 l-25 0
0 -111 0 -112 38 7 c20 3 63 6 95 6 l57 0 0 105 0 105 -30 0 c-16 0 -30 5 -30
10 0 6 42 10 106 10 67 0 103 -4 99 -10 -3 -5 -17 -10 -31 -10 l-24 0 0 -235
0 -235 24 0 c14 0 28 -4 31 -10 4 -6 -32 -10 -99 -10 -64 0 -106 4 -106 10 0
6 14 10 30 10 l30 0 0 115 0 115 -95 0 -95 0 0 -115 0 -115 25 0 c14 0 25 -4
25 -10 0 -6 -40 -10 -100 -10 -60 0 -100 4 -100 10 0 6 11 10 25 10 l25 0 0
235 0 235 -25 0 c-14 0 -25 5 -25 10 0 6 40 10 100 10 60 0 100 -4 100 -10z
m-1294 -1208 c-7 -6 -204 13 -212 21 -10 10 27 68 71 112 24 24 65 55 92 68
l48 25 3 -110 c1 -61 0 -113 -2 -116z m166 150 c39 -35 88 -102 88 -120 0 -5
-6 -9 -12 -10 -7 0 -44 -6 -83 -11 -126 -18 -115 -28 -115 104 l0 115 40 -20
c23 -12 59 -38 82 -58z m147 62 c-1 -10 -15 -8 -39 7 -11 7 -8 8 13 6 15 -2
27 -7 26 -13z m-486 -47 c-22 -24 -52 -64 -67 -90 -30 -50 -35 -51 -106 -25
l-25 10 44 39 c35 31 169 109 189 109 2 0 -13 -19 -35 -43z m457 -13 c19 -19
22 -88 3 -73 -7 6 -10 15 -7 20 3 5 1 9 -3 9 -5 0 -26 20 -47 46 l-38 45 39
-16 c21 -9 45 -23 53 -31z m-623 -150 c43 -13 53 -19 48 -32 -11 -30 -33 -135
-40 -194 l-6 -58 -89 0 -89 0 5 38 c10 69 43 167 73 215 17 26 33 47 37 47 3
0 31 -7 61 -16z m241 -41 l102 -6 0 -119 0 -118 -146 0 -147 0 6 70 c3 38 13
97 23 130 15 54 19 61 38 56 12 -4 67 -9 124 -13z m358 -7 c0 -14 -4 -22 -8
-20 -5 3 -5 10 -2 16 4 6 3 8 -3 5 -5 -3 -9 -29 -8 -56 1 -28 -2 -48 -6 -46
-3 3 -5 18 -4 35 1 17 0 32 -4 34 -4 3 -7 -31 -6 -74 1 -43 -2 -77 -6 -74 -4
2 -5 17 -4 34 1 17 0 32 -4 34 -4 3 -7 -23 -6 -57 l0 -62 -77 -3 -78 -4 0 121
0 121 63 2 c34 1 79 3 99 3 21 1 41 5 45 8 9 10 9 10 9 -17z m-587 -377 c6
-50 18 -108 25 -130 l14 -39 -37 -9 c-94 -25 -84 -29 -124 46 -33 63 -48 109
-61 191 l-5 32 88 0 88 0 12 -91z m331 -17 l0 -109 -102 -11 c-57 -7 -113 -14
-124 -18 -19 -5 -24 1 -38 43 -9 26 -20 83 -23 126 l-6 77 147 0 146 0 0 -108z
m175 76 c1 -15 -3 -26 -9 -25 -6 1 -10 -15 -10 -40 0 -24 -4 -41 -10 -40 -6 1
-10 -16 -10 -39 0 -41 -7 -47 -35 -30 -10 6 -12 5 -7 -2 5 -8 -3 -12 -23 -12
l-31 0 0 111 0 111 67 -4 c65 -3 67 -4 68 -30z m-95 -236 c10 -5 15 -22 16
-49 0 -23 -3 -40 -7 -38 -3 3 -5 18 -4 35 1 17 0 32 -4 34 -4 3 -7 -31 -6 -74
1 -43 -2 -77 -6 -74 -4 2 -5 17 -4 34 1 17 -1 32 -4 35 -4 2 -7 -23 -6 -56 1
-33 -2 -62 -5 -64 -4 -2 -8 48 -9 111 -2 118 0 124 39 106z m-80 -112 c0 -81
-3 -110 -12 -110 -47 0 -168 102 -202 169 l-16 30 37 6 c21 4 43 8 48 10 6 2
40 4 78 4 l67 1 0 -110z m-252 38 c27 -51 45 -72 96 -117 45 -38 30 -37 -59 5
-58 27 -170 113 -160 122 5 6 67 25 95 31 3 1 15 -18 28 -41z"/>
<path d="M2304 685 c0 -19 3 -32 5 -29 8 7 9 54 2 59 -4 2 -7 -12 -7 -30z"/>
<path d="M2926 2863 c-16 -49 -31 -94 -33 -100 -4 -10 13 -13 67 -13 54 0 71
3 67 13 -2 6 -17 51 -33 100 -15 48 -31 87 -34 87 -3 0 -19 -39 -34 -87z"/>
<path d="M2644 2006 c1 -8 5 -18 8 -22 4 -3 5 1 4 10 -1 8 -5 18 -8 22 -4 3
-5 -1 -4 -10z"/>
<path d="M2544 1626 c1 -8 5 -18 8 -22 4 -3 5 1 4 10 -1 8 -5 18 -8 22 -4 3
-5 -1 -4 -10z"/>
<path d="M2529 1525 c-1 -3 -2 -11 -3 -17 -1 -7 -6 -12 -12 -11 -6 1 -10 -17
-10 -40 0 -23 -4 -41 -9 -40 -6 1 -11 -18 -11 -42 0 -24 3 -42 7 -40 3 3 5 17
4 32 -1 15 3 34 9 42 6 8 11 26 11 40 0 14 5 33 10 41 10 16 16 40 9 40 -2 0
-5 -2 -5 -5z"/>
</g>
</svg>
